<?xml version="1.0" encoding="UTF-8"?>
<svg version="1.1" viewBox="0 0 1600 1600" xmlns="http://www.w3.org/2000/svg">
<path transform="translate(0)" d="m0 0h1600v1600h-1600v-1600z" fill="#FDFDFD"/>
<path transform="translate(396 643)" d="m0 0c0.719 5.44e-4 1.44 0.00109 2.18 0.00165 19.3 0.0665 36.9 3.43 54.9 10.4 0.683 0.262 1.37 0.523 2.07 0.792 18.3 7.15 37.4 18.8 50.9 33.2v2h2c1.44 1.57 2.8 3.21 4.12 4.88 1.2 1.51 1.2 1.51 2.43 3.05 0.806 1.01 1.61 2.03 2.44 3.07 0.713 0.86 1.43 1.72 2.16 2.61 7.52 9.12 12.9 16.6 13 28.7 0.00571 1.28 0.0114 2.55 0.0173 3.87 0.00125 1.41 0.00237 2.81 0.00339 4.22 0.00463 1.49 0.00966 2.97 0.015 4.46 0.0131 4.03 0.0196 8.07 0.024 12.1 0.00293 2.52 0.00704 5.04 0.0115 7.56 0.0137 7.89 0.0233 15.8 0.0272 23.7 0.00448 9.1 0.022 18.2 0.051 27.3 0.0216 7.04 0.0317 14.1 0.033 21.1 0.00105 4.2 0.00693 8.41 0.0248 12.6 0.0165 3.95 0.0186 7.91 0.00986 11.9-7.69e-4 1.45 0.00356 2.9 0.0135 4.35 0.0866 13.5 0.0866 13.5-3.37 19.5-0.451 0.846-0.902 1.69-1.37 2.56-20.6 33.2-55.4 56.7-93 66-4.8 1.13-9.63 2.11-14.5 3.01-1.84 0.342-3.69 0.708-5.52 1.08-6.43 1.17-12.7 1.51-19.3 1.56-0.772 0.00935-1.54 0.0187-2.34 0.0283-4.97-0.0275-9.55-0.673-14.4-1.73-2.61-0.558-5.23-1.01-7.87-1.44-10.7-1.79-20.6-3.98-30.7-8.11-0.804-0.282-1.61-0.565-2.44-0.855-32.2-11.6-62.7-38.2-78.8-68.3-1.67-3.9-1.9-7.45-1.92-11.7-0.0086-1.2-0.0172-2.41-0.0261-3.64-0.00426-1.32-0.00852-2.63-0.0129-3.99-0.00791-1.4-0.0162-2.81-0.0248-4.21-0.0262-4.61-0.0415-9.21-0.0558-13.8-0.00536-1.59-0.0107-3.18-0.0161-4.77-0.0216-6.61-0.0404-13.2-0.0516-19.8-0.0162-9.46-0.0494-18.9-0.106-28.4-0.0388-6.66-0.0582-13.3-0.0635-20-0.00364-3.97-0.0156-7.94-0.0481-11.9-0.0302-3.74-0.0363-7.48-0.0246-11.2 3.24e-4 -2.01-0.024-4.03-0.0494-6.04 0.0545-7.99 1.34-13.6 5.63-20.3 0.878-1.41 0.878-1.41 1.77-2.85 1.73-2.39 3.46-4.78 5.23-7.15 0.557-0.752 1.11-1.5 1.69-2.28 4.45-5.87 9.29-11.3 14.3-16.7 0.675-0.741 1.35-1.48 2.05-2.25 18.3-19.3 43.1-31.2 68.3-38.6 0.962-0.286 1.92-0.573 2.91-0.868 12.5-3.54 24.7-4.67 37.6-4.63z" fill="#F48815"/>
<path transform="translate(502 684)" d="m0 0c2.07 2.14 2.07 2.14 4.26 3.12v2h2c1.44 1.57 2.8 3.21 4.12 4.88 0.803 1.01 1.61 2.01 2.43 3.05 0.806 1.01 1.61 2.03 2.44 3.07 0.713 0.86 1.43 1.72 2.16 2.61 7.52 9.12 12.9 16.6 13 28.7 0.00571 1.28 0.0114 2.55 0.0173 3.87 0.00125 1.41 0.00237 2.81 0.00339 4.22 0.00463 1.49 0.00966 2.97 0.015 4.46 0.0131 4.03 0.0196 8.07 0.024 12.1 0.00293 2.52 0.00704 5.04 0.0115 7.56 0.0137 7.89 0.0233 15.8 0.0272 23.7 0.00448 9.1 0.022 18.2 0.051 27.3 0.0216 7.04 0.0317 14.1 0.033 21.1 0.00105 4.2 0.00693 8.41 0.0248 12.6 0.0165 3.95 0.0186 7.91 0.00986 11.9-7.69e-4 1.45 0.00356 2.9 0.0135 4.35 0.0866 13.5 0.0866 13.5-3.37 19.5-0.451 0.846-0.902 1.69-1.37 2.56-8.09 13.1-19.3 26.2-31.6 35.4h-3v-2h-8v-2h-2l0.312-2.19c-0.441-3.97-2.38-5.22-5.31-7.81l-1.56-1.69c-1.43-1.44-1.43-1.44-3.56-2.25l-1.88-1.06c-0.36-1.33-0.689-2.66-1-4-0.651-1.43-1.34-2.85-2.06-4.25-0.362-0.706-0.724-1.41-1.1-2.14-0.277-0.531-0.554-1.06-0.84-1.61h2c-0.186-0.639-0.371-1.28-0.562-1.94-0.715-5.01 0.0276-9.92 1.25-14.8 0.407-2.93-0.566-4.54-1.69-7.25-0.438-3.85-0.0197-5.95 1.51-9.55 2.58-7.62 1.73-15.9 1.56-23.8-0.0281-1.78-0.0548-3.56-0.0801-5.34-0.0701-4.66-0.159-9.32-0.252-14-0.0916-4.77-0.165-9.53-0.24-14.3-0.15-9.33-0.32-18.7-0.502-28-12.7-0.0232-25.4-0.041-38.1-0.0518-5.9-0.0052-11.8-0.0123-17.7-0.0236-5.7-0.0109-11.4-0.0169-17.1-0.0194-2.17-0.00184-4.33-0.00543-6.5-0.0109-15.8-0.0811-15.8-0.0811-31.6 1.11l-1-3c11.8-3.64 23.7-6.68 35.7-9.47 6.23-1.45 12.4-3.04 18.6-4.68 1.61-0.428 3.23-0.857 4.84-1.29 0.815-0.217 1.63-0.433 2.47-0.656 5.97-1.57 12-3.01 18-4.38 6.19-1.44 12.3-3.14 18.4-4.95 3.79-1.1 7.04-1.68 11-1.57-0.76-3.36-1.54-6.71-2.31-10.1-0.213-0.943-0.427-1.89-0.646-2.86-1.24-5.32-2.71-10.1-5.04-15.1-6.63 0.771-13 2.36-19.5 3.94-1.1 0.265-2.2 0.53-3.34 0.803-6.64 1.61-6.64 1.61-13.2 3.43-5.93 1.67-10.7 0.846-16.3-1.12-1.6-1.05-1.6-1.05-2.3-3.01-0.101-0.673-0.201-1.35-0.305-2.04l-0.5-2.38-0.5-2.62-0.625-3c-0.38-3.04-0.0572-5.04 0.625-8 0.226-3.01 0.103-4.75-1.06-7.56-1.07-2.78-0.765-3.68 0.0625-6.44l-1-3c-0.99-0.33-1.98-0.66-3-1-1.39-4.17-0.366-6.9 1-11h-2c-2.19-2.81-2.19-2.81-4-6l1-3-1-3h-2l-2-4 2-1.75c2.44-2.25 2.44-2.25 2-6.25h-2c0-2 0-2 2-4 2.74-0.372 5.37-0.615 8.12-0.75 0.807-0.0402 1.61-0.0804 2.44-0.122 35.9-1.34 73.6 16.2 99.2 40.8z" fill="#E45441"/>
<path transform="translate(458,714)" d="m0 0c3.3 4.33 4.37 9.31 5.69 14.5 0.337 1.26 0.337 1.26 0.682 2.55 1.07 4.11 1.75 7.67 1.63 11.9-21.9 5.8-21.9 5.8-31.6 8-6.33 1.44-12.6 3.12-18.8 4.88-9.59 2.68-19.3 4.9-29 6.94-9.76 2.08-19.2 5.01-28.6 8.18l1 1c1.64-0.0894 3.28-0.245 4.92-0.429 5.49-0.551 10.9-0.713 16.4-0.7 0.966-0.00175 1.93-0.0035 2.93-0.00531 3.15-0.00435 6.3-0.00151 9.45 0.00189 2.2-6.74e-4 4.4-0.00165 6.6-0.0029 4.59-0.00147 9.18 6.5e-4 13.8 0.00534 5.9 0.00573 11.8 0.00239 17.7-0.00357 4.53-0.0036 9.07-0.00247 13.6 1.28e-4 2.18 6.69e-4 4.35-1.57e-4 6.53-0.00248 3.03-0.00252 6.05 0.00131 9.08 0.0069 0.905-0.00202 1.81-0.00405 2.74-0.00613 6.17 0.0213 6.17 0.0213 7.28 1.14 0.141 2.45 0.218 4.87 0.253 7.31 0.0221 1.15 0.0221 1.15 0.0446 2.32 0.0471 2.55 0.0864 5.1 0.124 7.65 0.0139 0.87 0.0277 1.74 0.042 2.64 0.0734 4.61 0.141 9.23 0.204 13.8 0.0656 4.75 0.15 9.51 0.24 14.3 0.0654 3.66 0.117 7.33 0.164 11 0.0251 1.75 0.0555 3.5 0.0912 5.25 0.434 21.9 0.434 21.9-8.21 30.9-9.2 8.46-19.2 7.93-31.2 8.14-1.17 0.0236-2.35 0.0472-3.55 0.0715-3.8 0.0734-7.6 0.139-11.4 0.202-1.29 0.0225-2.59 0.0449-3.92 0.0681-16.3 0.275-32.6 0.398-49-0.0681-0.768-0.0213-1.54-0.0427-2.33-0.0646-24.7-0.723-24.7-0.723-34.5-9-8.1-9.76-7.41-22.9-7.4-35 9.84e-4 -2.37-0.0122-4.73-0.029-7.1-0.0457-6.72-0.0708-13.4-0.0775-20.2-0.00508-4.14-0.0297-8.28-0.0653-12.4-0.00964-1.55-0.0122-3.11-0.00683-4.66 0.0339-10.2-1.18-19.5-3.69-29.4-0.703-3.13-1.05-5.63-0.856-8.81 21-5.43 42-10.8 63-16 3.98-0.991 7.96-1.98 11.9-2.98 0.662-0.166 1.32-0.331 2.01-0.502 2.66-0.665 5.32-1.33 7.98-2 6.89-1.72 13.8-3.44 20.7-5.16 2.93-0.731 5.87-1.46 8.8-2.19 1.39-0.347 2.79-0.694 4.18-1.04 1.94-0.481 3.88-0.965 5.81-1.45 1.1-0.274 2.2-0.548 3.33-0.83 2.33-0.603 4.65-1.25 6.96-1.91 5.3-1.5 5.3-1.5 8.26-0.923z" fill="#FDFDFD"/>
<path transform="translate(550 736)" d="m0 0c1 7.55e-5 2 1.51e-4 3.03 2.29e-4 1.08 0.00516 2.17 0.0103 3.28 0.0156 1.11 0.00141 2.21 0.00283 3.35 0.00429 3.55 0.00561 7.09 0.0182 10.6 0.0309 2.4 0.00501 4.8 0.00958 7.2 0.0137 5.89 0.011 11.8 0.0278 17.7 0.0488 2.94 6.13 5.06 12.2 6.73 18.8 0.234 0.898 0.468 1.8 0.708 2.72 0.737 2.84 1.46 5.68 2.19 8.53 0.494 1.91 0.989 3.81 1.48 5.72 3.55 13.7 3.55 13.7 5.04 20.1 0.163 0.701 0.327 1.4 0.495 2.12 0.351 2.02 0.351 2.02 0.351 6.02h2v2h2c0.116-1.11 0.233-2.23 0.352-3.38 0.623-4.96 1.79-9.73 3.01-14.6 0.233-0.934 0.467-1.87 0.707-2.83 0.493-1.97 0.988-3.94 1.49-5.91 0.75-2.97 1.49-5.95 2.23-8.92 5.95-23.8 5.95-23.8 8.21-29.4 2.38-1.19 3.85-1.13 6.51-1.15 0.934-0.00638 1.87-0.0128 2.83-0.0193 1.01-0.00111 2.02-0.00223 3.07-0.00337 1.04-0.00333 2.07-0.00666 3.14-0.0101 2.19-0.00507 4.38-0.00741 6.58-0.00725 3.36-0.00219 6.73-0.0203 10.1-0.0393 2.13-0.00293 4.25-0.00492 6.38-0.00586 1.52-0.0108 1.52-0.0108 3.07-0.0218 0.934 0.00308 1.87 0.00615 2.83 0.00932 0.824-0.00143 1.65-0.00285 2.5-0.00432 2.01 0.247 2.01 0.247 4.01 2.25 0.223 2.91 0.322 5.72 0.335 8.63 0.0117 0.895 0.0233 1.79 0.0353 2.71 0.0362 2.98 0.0579 5.95 0.0792 8.93 0.0213 2.08 0.0432 4.16 0.0659 6.24 0.0455 4.38 0.0843 8.75 0.118 13.1 0.0431 5.55 0.0998 11.1 0.162 16.7 0.0467 4.31 0.0873 8.61 0.126 12.9 0.0188 2.04 0.0391 4.09 0.0611 6.13 0.107 10.3 0.0736 20.7-0.416 31-0.0394 0.858-0.0788 1.72-0.119 2.6-0.32 5.92-0.32 5.92-1.45 7.04-2.4 0.126-4.77 0.189-7.18 0.203-1.08 0.00855-1.08 0.00855-2.19 0.0173-1.53 0.00946-3.06 0.016-4.59 0.0198-2.34 0.00968-4.67 0.0407-7.01 0.0723-1.49 0.00653-2.97 0.0118-4.46 0.0156-0.698 0.0123-1.4 0.0247-2.12 0.0374-4.18-0.0191-6.46-0.415-9.46-3.37-0.457-2.23-0.457-2.23-0.394-4.86 0.0139-0.989 0.0277-1.98 0.042-3 0.0362-1.07 0.0725-2.14 0.11-3.25 0.0347-1.67 0.0347-1.67 0.07-3.37 0.0531-2.36 0.116-4.73 0.188-7.09 0.108-3.56 0.186-7.13 0.258-10.7 0.257-11.1 0.71-21.9 2.32-32.9 0.477-2.87 0.477-2.87 0.407-5.85h-2c-0.0954 0.895-0.191 1.79-0.289 2.71-0.824 5.76-2.53 11.3-4.09 16.9-1.82 6.6-3.61 13.2-5.11 19.9-1.55 6.81-3.4 13.5-5.39 20.2-0.326 1.16-0.652 2.33-0.988 3.53-0.331 1.11-0.663 2.22-1 3.36-0.29 0.996-0.58 1.99-0.878 3.02-1.25 2.41-1.25 2.41-3.61 3.73-4.04 1.04-7.86 1.01-12 0.992-1.24 0.0242-1.24 0.0242-2.5 0.0488-5.44 0.00432-9.54-0.289-14.1-3.36-1.66-3.07-2.48-6.24-3.31-9.62-0.238-0.865-0.476-1.73-0.721-2.62-1.1-4.06-2.07-8.15-2.96-12.3-1.09-4.99-2.45-9.89-3.82-14.8-2.1-7.61-4.13-15.2-6.06-22.9-0.215-0.843-0.43-1.69-0.652-2.55-0.788-3.15-1.47-6-1.47-9.26h-2c0.143 0.873 0.286 1.75 0.433 2.64 2.02 14.3 1.8 28.5 1.7 42.9-0.0208 3.45-0.0297 6.89-0.0397 10.3-0.0218 6.71-0.0551 13.4-0.0977 20.1-16.5 1.16-16.5 1.16-23.8 1.25-1.31 0.0258-2.63 0.0516-3.98 0.0781-3.27-0.328-3.27-0.328-4.94-1.53-1.77-2.39-1.75-3.96-1.83-6.92-0.0349-1.05-0.0698-2.1-0.106-3.18-0.022-1.14-0.044-2.29-0.0666-3.47-0.033-1.2-0.066-2.4-0.1-3.63-0.318-12.8-0.371-25.5-0.351-38.3 0.00537-3.89 5.1e-6 -7.79-0.00635-11.7-0.00384-16.2 0.371-32.4 1.14-48.7 2.46-1.23 4.06-1.12 6.82-1.11z" fill="#F7780D"/>
<path transform="translate(1048 735)" d="m0 0c9.55-0.0574 22.6 0.792 30.2 7.03 7.19 7.26 11 14.3 11.4 24.5-0.28 7.73-1.81 13.2-7.19 18.9-3.17 2.95-5.86 4.7-10.2 5.56v2l2.56 0.625c7.94 3.17 11.9 8.81 15.4 16.4 0.433 0.928 0.866 1.86 1.31 2.81 1.84 8.52 1.42 16.7-3.12 24.2-0.722 0.99-1.44 1.98-2.19 3l-2.12 3.06c-5.75 6.72-15.4 9.38-24 10.1-2.11 0.0664-4.21 0.0762-6.32 0.0598-0.788 0.0019-1.58 0.0038-2.39 0.00575-2.57 0.00367-5.14-0.00693-7.71-0.0182-1.8-0.00119-3.6-0.00164-5.4-0.00139-3.75-0.00156-7.5-0.00979-11.3-0.0233-4.81-0.0171-9.63-0.0208-14.4-0.0201-3.71-2.71e-4 -7.41-0.00575-11.1-0.013-1.78-0.00319-3.55-0.00515-5.33-0.00589-2.47-0.00216-4.94-0.0109-7.42-0.0216-0.736 4.53e-4 -1.47 9.06e-4 -2.23 0.00137-5.06-0.0321-5.06-0.0321-7.29-1.15-0.0467-14.8-0.082-29.7-0.104-44.5-0.0103-6.89-0.0244-13.8-0.0473-20.7-0.022-6.64-0.0337-13.3-0.0389-19.9-0.00371-2.54-0.0109-5.08-0.0217-7.61-0.0144-3.54-0.0165-7.09-0.0156-10.6-0.00719-1.06-0.0144-2.12-0.0218-3.21 0.00275-0.962 0.0055-1.92 0.00833-2.92-0.00184-0.839-0.00369-1.68-0.00559-2.54 0.246-2.03 0.246-2.03 2.25-4.03 2.61-0.278 2.61-0.278 5.96-0.319 1.25-0.0199 2.5-0.0397 3.79-0.0602 1.38-0.0119 2.75-0.0236 4.13-0.035 1.41-0.0187 2.82-0.0383 4.23-0.0587 3.72-0.0514 7.45-0.091 11.2-0.128 3.76-0.0397 7.52-0.0911 11.3-0.141 8.74-0.114 17.5-0.2 26.2-0.285z" fill="#EB7121"/>
<path transform="translate(340 801)" d="m0 0c1.64-0.00206 1.64-0.00206 3.31-0.00417 1.78 0.00539 1.78 0.00539 3.59 0.0109 1.26-1.46e-4 2.52-2.92e-4 3.82-4.43e-4 3.44-2.86e-4 6.88 0.00558 10.3 0.0126 3.6 0.00626 7.2 0.00684 10.8 0.00803 6.81 0.0031 13.6 0.0113 20.4 0.0213 7.76 0.0112 15.5 0.0167 23.3 0.0217 15.9 0.0104 31.9 0.028 47.8 0.0503 1.48 3.53 2.25 6.13 2.2 9.97-0.00726 0.961-0.0145 1.92-0.022 2.91-0.0295 1.54-0.0295 1.54-0.0595 3.11-0.0155 1.07-0.0311 2.13-0.0471 3.23-0.0368 2.25-0.0791 4.5-0.127 6.76-0.068 3.44-0.104 6.88-0.139 10.3-0.0397 2.19-0.0813 4.38-0.125 6.57-0.0075 1.03-0.015 2.05-0.0227 3.11-0.204 7.53-1.94 11.4-7.41 16.7-6.84 4.87-12.9 5.76-21.1 5.7-1.43 0.00789-1.43 0.00789-2.89 0.0159-3.13 0.0131-6.25 0.00448-9.38-0.00568-2.19 0.00202-4.37 0.00494-6.56 0.0087-4.58 0.00441-9.15-0.00198-13.7-0.016-5.85-0.0171-11.7-0.00725-17.5 0.0107-4.51 0.0109-9.03 0.00738-13.5-3.83e-4 -2.16-0.00199-4.31 4.27e-4 -6.47 0.00744-3.02 0.00767-6.04-0.00406-9.06-0.0207-0.881 0.00607-1.76 0.0121-2.67 0.0184-7.92-0.0804-15.5-1.9-21.8-6.86-4.28-4.45-5.74-10.1-5.85-16.2 0.042-2.07 0.106-4.14 0.19-6.2 0.0279-1.1 0.0557-2.19 0.0844-3.32 0.0927-3.47 0.215-6.95 0.337-10.4 0.0683-2.37 0.135-4.74 0.199-7.1 0.161-5.78 0.347-11.6 0.551-17.3 3.92-0.73 7.63-1.12 11.6-1.12z" fill="#EB7121"/>
<path transform="translate(784,770)" d="m0 0c8.79 7.3 14.9 17.6 16.4 29.1 0.148 3.16 0.161 6.28 0.115 9.44 0.0232 1.58 0.0232 1.58 0.0469 3.18-0.0484 9.78-2.48 18.5-8.55 26.3-0.423 0.624-0.846 1.25-1.28 1.89-6.21 8.3-16.7 12.6-26.7 14.5-16.6 2.01-33.7 0.995-48.1-8.44-7.36-5.86-12-12.1-15-21-0.365-1.06-0.365-1.06-0.738-2.13-3.88-13.9-1.39-28.7 5.43-41.2 6.37-9.85 16-16.4 27.2-19.5 16.5-3.35 37.1-2.62 51.1 7.81z" fill="#F7790D"/>
<path transform="translate(1192 771)" d="m0 0c4.58 4.82 7.53 10.3 7.66 17 0.0299 1.35 0.0299 1.35 0.0604 2.73 0.0167 0.969 0.0334 1.94 0.0506 2.94 0.0208 0.995 0.0416 1.99 0.063 3.01 0.0654 3.18 0.124 6.36 0.183 9.54 0.0432 2.15 0.0868 4.31 0.131 6.46 0.107 5.28 0.209 10.6 0.307 15.8l3.25 1.44c0.603 0.267 1.21 0.534 1.83 0.809 2.23 0.921 2.23 0.921 5.92 1.75v18c-9.15 4.58-19.8 5.83-29.8 2.88-3.27-1.24-5.71-2.94-8.44-5.12-2.8-2.32-2.8-2.32-6.31-2.88-2.61 1.21-5.08 2.6-7.55 4.07-10.2 5.72-23.8 6.84-35.2 4.3-8.17-2.77-13.7-5.99-18.7-13.2-3.44-7.15-2.78-14.5-0.25-21.9 3.03-7.4 7.09-11.6 14.2-15.1 6.44-2.57 12.8-3.77 19.7-4.62 0.957-0.126 1.91-0.252 2.9-0.383 6.67-0.853 13.3-1.42 20-1.68 1.18-0.153 1.18-0.153 2.39-0.309 1.31-2.08 1.31-2.08 0.312-4.88-1.7-4.06-3.15-6.22-7.29-7.95-4.33-1.28-7.26-1.48-11.4 0.453-2.97 1.73-4.67 3.53-6.62 6.38-5.48 1.99-11.8 0.946-17.6 0.75-1.24-0.0271-2.49-0.0541-3.77-0.082-1.19-0.04-2.38-0.0799-3.61-0.121-1.09-0.0325-2.18-0.0651-3.3-0.0986-3.01-0.489-3.94-1.07-5.76-3.45 2.97-9 6.97-15.8 15.2-20.8 20.5-10.2 53.3-11.3 71.3 4.29z" fill="#EB7121"/>
<path transform="translate(386 643)" d="m0 0c1.04 0.00902 2.08 0.018 3.16 0.0273 1.16 0.0174 1.16 0.0174 2.34 0.0352l1 3h-3v2h2c0.75 1.69 0.75 1.69 1 4-1.31 1.68-2.65 3.35-4 5l1 3h2c2 4.88 2 4.88 2 6 0.654 2 1.32 4 2 6h2v4h-2l1 2.38c1 2.62 1 2.62 1 4.62 1.29 1.37 2.62 2.71 4 4l-2 1c0.309 0.846 0.619 1.69 0.938 2.56 1.44 4.67 2.64 8.72 1.06 13.4l2 2-2 1 2 7h-2l1.56 2.38c0.474 0.866 0.949 1.73 1.44 2.62l-1 2c2.02 0.456 4.04 0.911 6.05 1.37 1.95 0.633 1.95 0.633 3.95 2.63-1.02 0.241-1.02 0.241-2.06 0.487-3.17 0.752-6.34 1.51-9.51 2.26-1.07 0.253-2.13 0.505-3.23 0.766-7.13 1.7-14.2 3.54-21.3 5.44-6.09 1.64-12.2 3.21-18.3 4.76-1.4 0.357-2.8 0.718-4.21 1.08-2.07 0.538-4.15 1.06-6.22 1.59-1.21 0.31-2.42 0.619-3.66 0.938-6.33 1.21-11.1 1.3-16.5-2.33v-2h-5l-0.375-2.31c-0.506-2.89-0.506-2.89-2.62-5.69v-3c-0.462-0.907-0.462-0.907-0.934-1.83-1.28-2.61-1.67-4.99-2.13-7.86-0.308-3.46-0.308-3.46-1.94-6.31-0.347-1.58-0.653-3.16-0.938-4.75-0.542-2.95-1-5.13-2.38-7.81-0.995-3.53 0.365-5.86 1.64-9.21 0.899-2.98 0.507-5.27-0.328-8.23l-3.31-0.312c-3.54-0.661-4.62-0.89-6.69-3.69l1-2h2v-2l-2-1c23.5-15.8 52.6-29.4 81.5-29.1z" fill="#EB7022"/>
<path transform="translate(1397,765)" d="m0 0c0.78 0.289 1.56 0.578 2.36 0.875 9.05 3.94 15.9 12.4 19.6 21.5 3.19 9.23 3.07 16.3 3.07 26.7h-66c-0.333 6.22-0.333 6.22 2 10.8 2 3.19 2 3.19 2 5.19 7.23 2.45 13.1 4.22 20.6 1.88 4.74-2.64 7.62-5.61 9.38-10.9 21.7-1.38 21.7-1.38 31 0 1.22 4.99 0.896 8.22-1 13-5.91 9.7-14 15.8-24.8 19.2-17.9 3.94-39.2 3.47-55.2-6.12-9.91-6.97-15.5-14.7-18.5-26.4-2.26-15.4-0.283-29.8 8.61-42.7 0.578-0.908 1.16-1.82 1.75-2.75 3.56-3.56 7.85-5.86 12.2-8.25 0.945-0.519 1.89-1.04 2.86-1.57 15.3-6.97 34.7-6.18 50.1-0.426z" fill="#EB7121"/>
<path transform="translate(466,863)" d="m0 0h2l-0.125 2.81c-0.146 3.35-0.146 3.35 2.12 6.19-0.242 3.33-0.242 3.33-0.875 7.25-0.789 4.98-1.44 9.71-1.12 14.8l2 2v3l2 1v3c1.66 1.01 3.33 2.01 5 3 1.36 1.64 2.7 3.31 4 5l3 2-1 5h2v2c0.763-0.186 1.53-0.371 2.31-0.562 2.69-0.438 2.69-0.438 5.69 0.562v2l2 1c-24 18.6-59.7 36.7-91 33-3.7-0.53-7.35-1.17-11-2l1-2c0.11-2.94 0.11-2.94-0.562-5.5-0.438-2.5-0.438-2.5 0.562-5.5l-1.94-0.688c-2.06-1.31-2.06-1.31-3-3.38-0.0777-3.65 0.929-6.38 2.16-9.79 1.39-3.86 2.08-6.22 0.773-10.1l0.562-1.75c0.665-2.48 0.665-2.48-0.625-5.75-0.938-3.5-0.938-3.5-0.0625-5.94l1.12-1.56h2c-0.733-1.97-1.47-3.93-2.21-5.89-0.62-1.67-1.18-3.35-1.72-5.05-0.875-2.26-0.875-2.26-3.19-2.88l-1.88-0.188 0.625-2.81c0.742-3.34 0.742-3.34-1.62-6.19l1-3c12.9-1.27 25.8-1.33 38.8-1.55 2.98-0.0521 5.95-0.109 8.93-0.167 0.897-0.0136 1.79-0.0272 2.72-0.0411 11.3 0.143 11.3 0.143 21.4-4.05 0.74-0.535 1.48-1.07 2.24-1.62 2.14-1.72 4.05-3.59 5.95-5.57z" fill="#EB7022"/>
<path transform="translate(1267 761)" d="m0 0c1.28-0.00834 1.28-0.00834 2.59-0.0168 4.41 0.0514 7.75 0.393 11.8 2.33 1.22 0.248 2.43 0.495 3.69 0.75 8.84 2.2 14.8 7.08 20 14.4 1.74 3.88 2 7.64 2.28 11.9-3.96 0.175-7.93 0.301-11.9 0.385-2 0.052-4 0.141-6 0.231-8.02 0.141-12.3-0.545-18.2-6.03-2.68-2.26-4.75-2.37-8.18-2.15-0.986 0.04-1.97 0.0799-2.99 0.121-2.71 0.443-4.44 0.892-6.7 2.44-1.27 2.03-1.27 2.03-2 4 6.48 2.25 12.9 4.32 19.7 5.45 22.1 3.7 22.1 3.7 30.3 9.55v2h2c1.25 1.64 1.25 1.64 2.56 3.81 0.652 1.06 0.652 1.06 1.32 2.14 3.46 6.3 3.36 15.8 1.37 22.6-0.952 1.94-1.98 3.65-3.25 5.41-0.578 0.887-1.16 1.77-1.75 2.69-8.25 8.48-20.7 11.9-32.2 12.3-0.985 0.04-1.97 0.0799-2.98 0.121-16.8 0.341-32-2.6-44.9-13.8-4.13-4.34-6.12-9.45-7.07-15.3l1-2c4.2-0.149 8.4-0.257 12.6-0.33 1.43-0.0301 2.86-0.071 4.28-0.123 2.06-0.073 4.11-0.107 6.17-0.133 1.24-0.0314 2.47-0.0628 3.75-0.0952 3.21 0.681 3.21 0.681 5.53 3.63 0.553 1.01 1.11 2.02 1.68 3.05 4.64 3.79 9.8 4.57 15.7 4.34 3.19-0.462 5.64-1.63 8.34-3.34 0.14-2.92 0.14-2.92-1-6-6.07-2.83-12.2-3.84-18.8-4.88-12-2.04-25.3-4.89-32.8-15.3-4-7.05-4.69-13.6-2.74-21.5 2.86-8.21 7.61-13.2 15.3-17.1 10.3-4.24 20.6-5.5 31.6-5.56z" fill="#EB7121"/>
<path transform="translate(807,763)" d="m0 0h35c4.5 11.3 4.5 11.3 5.75 15.4 0.277 0.914 0.555 1.83 0.841 2.77 0.281 0.942 0.561 1.88 0.851 2.85 0.3 0.991 0.6 1.98 0.909 3 1.44 4.78 2.82 9.57 4.11 14.4 0.221 0.824 0.441 1.65 0.668 2.5 0.406 1.54 0.803 3.08 1.19 4.62 0.977 3.72 1.84 5.93 4.69 8.5 0.177-0.729 0.355-1.46 0.538-2.21 3.53-14.3 7.68-28.5 12.2-42.6 0.366-1.14 0.732-2.28 1.11-3.46 1.17-2.81 1.71-3.97 4.14-5.73 3.09-0.341 3.09-0.341 6.86-0.293 0.662 0.00424 1.32 0.00849 2 0.0129 2.11 0.0168 4.22 0.0544 6.33 0.0926 1.43 0.015 2.86 0.0287 4.29 0.041 3.51 0.033 7.01 0.0848 10.5 0.146-0.523 6.03-1.88 10.9-4.19 16.5-0.64 1.59-1.28 3.19-1.92 4.78-0.32 0.793-0.64 1.59-0.97 2.4-1.36 3.42-2.65 6.87-3.92 10.3-2.92 7.84-5.95 15.6-9 23.4-1.12 2.86-2.23 5.72-3.34 8.58-0.803 2.06-1.61 4.12-2.41 6.18-0.377 0.968-0.754 1.94-1.14 2.93-0.361 0.923-0.721 1.85-1.09 2.8-0.317 0.812-0.634 1.62-0.96 2.46-1.3 3.23-2.68 6.42-4.06 9.62-4.63 0.217-9.25 0.414-13.9 0.592-1.57 0.0634-3.15 0.132-4.72 0.207-2.26 0.107-4.53 0.193-6.79 0.275-0.701 0.0374-1.4 0.0747-2.12 0.113-3.03 0.0929-5.14-0.00513-7.85-1.43-1.82-1.95-2.59-3.42-3.47-5.93-0.316-0.872-0.632-1.74-0.957-2.64-0.338-0.968-0.675-1.94-1.02-2.93-0.784-2.17-1.57-4.34-2.36-6.5-0.44-1.22-0.88-2.43-1.33-3.68-2.59-7.1-5.34-14.1-8.07-21.2-0.987-2.55-1.97-5.11-2.95-7.67-2.72-7.08-5.45-14.2-8.22-21.2-0.381-0.981-0.762-1.96-1.15-2.97-0.668-1.72-1.34-3.44-2.02-5.16-1.37-3.54-2.08-5.99-2.08-9.84z" fill="#F7780D"/>
<path transform="translate(344 801)" d="m0 0c0.902 0.00141 1.8 0.00283 2.73 0.00429 2.86 0.00557 5.73 0.0181 8.59 0.0309 1.95 0.00502 3.9 0.00958 5.84 0.0137 4.76 0.011 9.52 0.0282 14.3 0.0488l1 3c-0.99 0.33-1.98 0.66-3 1l2 4-4 2c1.84 2.27 1.84 2.27 4.6 2.2 0.998-0.0232 2-0.0464 3.02-0.0703 1-0.018 2.01-0.0361 3.04-0.0547 1.16-0.0348 1.16-0.0348 2.34-0.0703v2l-1 1 2 0.188c3.42 0.925 5.69 2.43 8.62 4.35 2.74 1.68 5.55 3.1 8.44 4.52 13 6.41 13 6.41 14.9 10.9-25.4 17.1-25.4 17.1-34 20l2 2c0.16 1.88 0.16 1.88 0.0625 4-0.158 3.12-0.158 3.12 0.938 6-3.15 1.57-6.52 1.18-9.97 1.2-0.797 0.0057-1.59 0.0114-2.42 0.0173-1.69 0.00946-3.38 0.016-5.08 0.0198-2.56 0.00964-5.13 0.0406-7.69 0.0723-10.2 0.0667-19.8 0.0495-28.2-6.7-4.4-4.4-5.86-10.2-5.98-16.2 0.042-2.07 0.106-4.14 0.19-6.2 0.0279-1.1 0.0557-2.19 0.0844-3.32 0.0927-3.47 0.215-6.95 0.337-10.4 0.0683-2.37 0.135-4.74 0.199-7.1 0.161-5.78 0.347-11.6 0.551-17.3 5.23-1.07 10.2-1.13 15.6-1.1z" fill="#F7790D"/>
<path transform="translate(923,762)" d="m0 0c4.4 0.118 8.79 0.242 13.2 0.372 1.5 0.0434 2.99 0.0851 4.49 0.125 2.15 0.0576 4.29 0.121 6.44 0.186 1.94 0.055 1.94 0.055 3.92 0.111 2.96 0.205 2.96 0.205 3.96 1.21 0.125 2.77 0.186 5.51 0.205 8.28 0.0099 0.868 0.0198 1.74 0.03 2.63 0.0317 2.88 0.0564 5.77 0.0811 8.65 0.0206 1.99 0.0416 3.99 0.063 5.98 0.0553 5.26 0.105 10.5 0.153 15.8 0.0502 5.36 0.106 10.7 0.161 16.1 0.108 10.5 0.209 21.1 0.307 31.6-5 1.67-10.2 1.23-15.5 1.24-2.04 0.00973-4.08 0.0408-6.12 0.0723-1.29 0.00516-2.57 0.0103-3.89 0.0156-1.18 0.00935-2.36 0.0187-3.58 0.0283-2.96-0.356-2.96-0.356-4.62-1.37-2.11-3.12-1.75-6.42-1.71-10.1-0.00365-0.823-0.0073-1.65-0.0111-2.49-0.00811-2.72 0.00551-5.45 0.0201-8.17 5.19e-4 -1.89 1.04e-6 -3.78-0.00151-5.68 8.98e-5 -3.97 0.0105-7.93 0.0286-11.9 0.0227-5.09 0.0232-10.2 0.0165-15.3-0.00334-3.91 0.00329-7.82 0.0131-11.7 0.00385-1.88 5e-3 -3.75 0.00341-5.63-3.71e-4 -2.62 0.0123-5.24 0.0285-7.86-0.00248-0.776-0.00495-1.55-0.00751-2.35 0.0372-3.77 0.17-6.66 2.28-9.86z" fill="#F7780D"/>
<path transform="translate(375 875)" d="m0 0c1.28 0.0232 2.55 0.0464 3.87 0.0703 1.92 0.0271 1.92 0.0271 3.88 0.0547 1.48 0.0348 1.48 0.0348 2.99 0.0703 1.48 4.43 1.23 8.53 0 13 0.763 0.0412 1.53 0.0825 2.31 0.125 2.69 0.875 2.69 0.875 4.44 3.5 1.29 3.49 1.88 6.68 2.25 10.4h-2c-1.42 4.4-0.537 7.69 0.625 12 0.375 1.99 0.375 1.99-0.625 3.99 0.174 0.761 0.348 1.52 0.527 2.3 0.55 3.14 0.0634 4.83-0.965 7.82-1.46 4.3-2.03 7.48-0.562 11.9l2 1c0.414 1.96 0.414 1.96 0.625 4.38 0.0748 0.791 0.15 1.58 0.227 2.4 0.116 1.74 0.148 3.48 0.148 5.23l-2 1c1.37 0.0735 1.37 0.0735 2.77 0.148 1.19 0.0748 2.38 0.15 3.6 0.227 1.78 0.104 1.78 0.104 3.59 0.211 3.04 0.414 3.04 0.414 5.04 2.41-9.61 3.2-22.4 1.43-32-1-2.7-0.565-5.41-1.09-8.12-1.62-1.32-0.262-2.63-0.525-3.95-0.789-0.967-0.193-1.93-0.387-2.93-0.586l2-2c3.12 0.375 3.12 0.375 6 1l-1.38-2.62c-1.62-3.38-1.62-3.38-2.56-6.62-1.26-3.26-2.02-3.38-5.06-4.75-0.75-2.12-0.75-2.12-1-4h4l2-4h2l-1-3 2.38-2.12c2.83-3.09 3.55-4.88 4.62-8.88 0.489-1.57 0.99-3.13 1.5-4.69 0.237-0.746 0.474-1.49 0.719-2.26 0.781-2.05 0.781-2.05 2.78-5.05l-1-3c-0.348-1.66-0.684-3.33-1-5h2v-2c-0.99-0.33-1.98-0.66-3-1-1.06-2.81-1.06-2.81-2-6-0.371-0.722-0.742-1.44-1.12-2.19-0.875-1.81-0.875-1.81-0.875-4.81l4-2-5-1c2-2 2-2 5.26-2.2z" fill="#F7780D"/>
<path transform="translate(307,673)" d="m0 0v2h-2c0.882 2.88 0.882 2.88 2 5 2.32 0.407 4.66 0.744 7 1 1.87 5.19 2.13 7.9 0 13v2h-2c0.639 0.99 1.28 1.98 1.94 3 2.33 4.03 2.62 7.39 3.06 12l1 2.44c0.991 2.54 1.22 4.43 1.44 7.12 0.333 3.72 1.05 5.59 3.56 8.44v3l2 3 1 2c0.99 0.33 1.98 0.66 3 1 0.681 0.773 0.681 0.773 1.38 1.56 1.6 1.71 1.6 1.71 4.31 1.62l2.31-0.188v3c-7.8 2.49-14.7 4.57-23 4v-2l-5 1v-2l-3-1c-0.0909-0.888-0.0909-0.888-0.184-1.79-0.437-4.12-0.917-8.16-1.82-12.2l-0.25-2.5c-1.07-3.58-2.89-5.15-5.75-7.5-3.17-1.34-3.17-1.34-6-2l1-2.94c1.27-4.36 1.18-8.56 1-13.1h-2l2-5c-1.98 0.33-3.96 0.66-6 1l-4-6c3.46-7.83 14.2-19 23-19z" fill="#F7790D"/>
<path transform="translate(758 785)" d="m0 0c4.84 2.87 7.47 6.78 8.99 12.2 0.533 3.9 0.607 7.74 0.633 11.7 0.0206 0.777 0.0412 1.55 0.0625 2.36 0.0452 6.72-1.24 11.4-5.75 16.6-4.57 3.9-8.03 4.69-14 4.57-5.43-0.798-9.28-3.64-12.5-7.95-3.56-8.18-3.46-20.2-0.812-28.7 2.06-4.94 4.29-7.95 9.06-10.6 5.3-1.71 8.96-1.66 14.3-0.188z" fill="#FEFEFE"/>
<path transform="translate(383,816)" d="m0 0c4.35 0.408 7.07 2.21 10.6 4.54 2.74 1.68 5.55 3.1 8.44 4.52 13 6.41 13 6.41 14.9 10.9-8.5 5.73-17 11.4-25.9 16.5-0.875 0.505-1.75 1.01-2.65 1.53-2.76 1.11-3.65 0.804-6.41-0.0312-0.0247-5.09-0.0429-10.2-0.0549-15.3-0.00504-1.73-0.0119-3.46-0.0205-5.2-0.0121-2.49-0.0178-4.97-0.0222-7.46-0.00516-0.777-0.0103-1.55-0.0156-2.35-5.75e-4 -5.49-5.75e-4 -5.49 1.11-7.72z" fill="#FEFEFE"/>
<path transform="translate(923,730)" d="m0 0c4.4-0.0247 8.79-0.0428 13.2-0.0549 1.5-0.00504 2.99-0.0119 4.49-0.0205 2.15-0.0121 4.29-0.0178 6.44-0.0222 1.94-0.00786 1.94-0.00786 3.92-0.0159 2.96 0.114 2.96 0.114 3.96 1.11 0.0869 1.56 0.107 3.13 0.0977 4.69-0.00322 0.944-0.00645 1.89-0.00977 2.86-0.0126 1.49-0.0126 1.49-0.0254 3.01-0.00451 0.997-0.00902 1.99-0.0137 3.02-0.0118 2.47-0.0283 4.94-0.0488 7.42-4.68 0.0247-9.36 0.0428-14 0.0549-1.59 0.00504-3.19 0.0119-4.78 0.0205-2.29 0.0121-4.57 0.0178-6.86 0.0222-0.717 0.00516-1.43 0.0103-2.17 0.0156-1.72 1.96e-4 -3.43-0.0514-5.14-0.113-2.09-2.09-1.19-6.44-1.19-9.31-0.0122-0.773-0.0245-1.55-0.0371-2.34-0.00193-0.75-0.00387-1.5-0.00586-2.27-0.00411-0.685-0.00822-1.37-0.0125-2.08 0.284-2.34 1.09-3.96 2.24-6z" fill="#F8790D"/>
<path transform="translate(429,754)" d="m0 0-4 3c0.289 0.554 0.578 1.11 0.875 1.68 0.371 0.724 0.742 1.45 1.12 2.2 0.371 0.719 0.742 1.44 1.12 2.18 0.875 1.95 0.875 1.95 0.875 3.95 1.96 1.64 1.96 1.64 4 3-3.13 1.04-5.37 1.15-8.66 1.19-1.16 0.0167-2.32 0.0334-3.52 0.0507-1.26 0.0136-2.52 0.0272-3.82 0.0411-1.99 0.0281-3.97 0.0563-5.96 0.0847-3.49 0.0487-6.99 0.091-10.5 0.134-4.14 0.0513-8.27 0.104-12.4 0.163-2.57 0.0362-5.15 0.0688-7.72 0.0969-7.52 0.106-14.9 0.505-22.4 1.24l-1-3c11.8-3.64 23.7-6.68 35.7-9.47 2.8-0.655 5.6-1.33 8.4-2.03 0.888-0.22 1.78-0.441 2.69-0.668 2.68-0.702 5.35-1.44 8.02-2.2 0.86-0.238 1.72-0.477 2.61-0.723 1.72-0.477 3.43-0.965 5.15-1.46 0.786-0.217 1.57-0.433 2.38-0.656 0.704-0.201 1.41-0.402 2.13-0.609 1.89-0.184 1.89-0.184 4.89 1.82z" fill="#EB7121"/>
<path transform="translate(1025 805)" d="m0 0c1.7-0.0058 1.7-0.0058 3.44-0.0117 1.78 0.0174 1.78 0.0174 3.6 0.0352 1.76-0.0174 1.76-0.0174 3.56-0.0352 11 0.0372 11 0.0372 15.6 3.41 2.12 3.19 2.32 4.24 2.38 7.94 0.0284 0.855 0.0567 1.71 0.0859 2.59-0.631 3.38-1.74 4.38-4.46 6.47-3.38 0.47-3.38 0.47-7.36 0.426-1.05-0.00493-1.05-0.00493-2.13-0.00996-1.48-0.0104-2.96-0.0303-4.44-0.0591-2.27-0.0442-4.54-0.0615-6.81-0.0735-11.1-0.104-11.1-0.104-12.3-1.28-0.154-2.64-0.232-5.23-0.25-7.88-0.0206-0.733-0.0412-1.47-0.0625-2.22-0.0392-5.38-0.0392-5.38 1.47-7.61 2.58-1.81 4.47-1.68 7.61-1.69z" fill="#FEFEFE"/>
<path transform="translate(1033 761)" d="m0 0c5.08-0.124 9.58 0.0457 14.3 2.12 2.91 3.2 3.89 5.29 4.56 9.56-0.708 4.33-2.2 5.72-5.56 8.44-2.73 1.36-4.77 1.03-7.81 0.914-1.74-0.0657-1.74-0.0657-3.51-0.133-1.21-0.0516-2.43-0.103-3.68-0.156-1.21-0.0438-2.43-0.0877-3.68-0.133-9.06-0.363-9.06-0.363-11.3-1.49-0.081-2.44-0.14-4.87-0.188-7.31-0.0251-0.69-0.0503-1.38-0.0762-2.09-0.0732-5.05-0.0732-5.05 1.46-7.53 4.47-2.63 10.5-1.95 15.5-2.19z" fill="#FEFEFE"/>
<path transform="translate(1163,814)" d="m0 0c2.12 2.06 2.12 2.06 3 5 0 4.28-0.499 6.35-3.12 9.75-4.64 3.63-9.92 6.13-15.9 6.25-4.44-1.56-7.36-3.05-10-7 0-4.08 0.678-5.64 3.44-8.69 6.02-4.47 15.1-6.95 22.6-5.31z" fill="#FEFEFE"/>
<path transform="translate(1380,784)" d="m0 0c3.41 2.16 5.75 4.62 8 8 0.188 2.62 0.188 2.62 0 5-2.34 2.34-8.19 1.17-11.3 1.19-0.679-8.06e-5 -1.36-1.61e-4 -2.06-2.44e-4 -2.07 0.00218-4.14 0.0203-6.21 0.0393-1.3 0.00193-2.59 0.00387-3.93 0.00586-1.2 0.00411-2.4 0.00822-3.63 0.0125-2.87-0.243-2.87-0.243-4.87-2.24 0.0912-3.38 0.916-4.89 3-7.56 6.7-5.44 12.7-8.04 21-4.44z" fill="#FEFEFE"/>
<path transform="translate(1413 820)" d="m0 0c0.802 0.0522 1.6 0.104 2.43 0.158 1.98 0.13 3.96 0.266 5.95 0.404 1.12 5.78 0.891 9.79-2.18 15-1.18 1.73-2.49 3.38-3.82 5h-2l-1-2-2 1-1-3h3v-3l-5 1c-3-5.75-3-5.75-3-8l-2-1 2-2-2-3c3.33-1.66 7-0.819 10.6-0.562z" fill="#F7780D"/>
<path transform="translate(419,778)" d="m0 0c3.83-0.634 7.19-0.828 11 0 3.38 2.88 5.67 6.24 8 10 0.851 1.34 0.851 1.34 1.72 2.71 1.28 2.29 1.28 2.29 1.28 4.29-10.9 0.781-10.9 0.781-14.9-2-0.701-0.99-1.4-1.98-2.12-3-0.547-0.651-1.09-1.3-1.66-1.97-3.24-3.94-3.24-3.94-4.34-6.03 0.336-2.25 0.336-2.25 1-4z" fill="#EB7121"/>
<path transform="translate(350,778)" d="m0 0c11.9-0.938 11.9-0.938 15.9 2.44 0.719 1.17 1.4 2.36 2.06 3.56 1.1 1.59 2.2 3.17 3.31 4.75 2.69 3.98 2.69 3.98 2.69 6.25-1.73 0.0817-3.46 0.14-5.19 0.188-1.44 0.0522-1.44 0.0522-2.92 0.105-3.5-0.354-5.12-1.14-7.89-3.29-2.24-2.85-2.24-2.85-4.31-6.06-1.05-1.6-1.05-1.6-2.11-3.22-1.57-2.71-1.57-2.71-1.57-4.71z" fill="#F7780D"/>
<path transform="translate(392,739)" d="m0 0c2.94 2.1 5.51 4.4 8 7l2.19 2.06c1.81 1.94 1.81 1.94 1.81 3.94-4.5 1.44-8.22 2.6-13 2-2.53-1.51-4.64-3.39-6.81-5.38-0.585-0.508-1.17-1.02-1.77-1.54-4.24-3.73-4.24-3.73-5.42-6.09 1.56-0.535 3.12-1.05 4.69-1.56 0.87-0.29 1.74-0.58 2.64-0.879 2.98-0.621 4.78-0.436 7.68 0.441z" fill="#ED721E"/>
<path transform="translate(424,730)" d="m0 0c3.67 2.68 6.97 5.62 10 9v2c0.99 0.33 1.98 0.66 3 1l-1 2c-2.06 0.625-2.06 0.625-5 1l-3.69 0.562c-6-0.0342-10.2-4.59-14.3-8.56-1.03-1.31-2.05-2.63-3-4 4.83-2.37 8.55-4.11 14-3z" fill="#EB7122"/>
<path transform="translate(360,747)" d="m0 0c4.66 3.44 8.64 7.27 12 12-4.59 1.84-9.1 3.18-14 2-5.31-3.16-9.78-7.51-14-12 5.56-2.23 10.1-4 16-2z" fill="#F7790D"/>
<path transform="translate(384,778)" d="m0 0c10.2-1.21 10.2-1.21 14.2 1.46 4.1 4.6 7.06 10 9.82 15.5-10.9 0.78-10.9 0.78-14.8-1.94l-2.19-3.06c-0.608-0.736-1.22-1.47-1.84-2.23-5.16-6.27-5.16-6.27-5.16-9.77z" fill="#F57710"/>
<path transform="translate(451,778)" d="m0 0c1.98-0.0269 3.96-0.0463 5.94-0.0625 1.1-0.0116 2.2-0.0232 3.34-0.0352 2.72 0.0977 2.72 0.0977 3.72 1.1 0.0732 2.7 0.0924 5.37 0.0625 8.06-0.00451 0.759-0.00902 1.52-0.0137 2.3-0.0118 1.88-0.0298 3.76-0.0488 5.64-4.23-2.58-7.09-4.96-9.88-9.06-0.596-0.857-1.19-1.71-1.8-2.6-1.32-2.34-1.32-2.34-1.32-5.34z" fill="#EB7122"/>
<path transform="translate(321,753)" d="m0 0c5.57 0.256 8.53 3.83 12.3 7.5 0.645 0.607 1.29 1.21 1.96 1.84 3.38 3.21 3.38 3.21 4.73 4.66v1c-1.93 0.39-3.87 0.761-5.81 1.12-1.08 0.209-2.16 0.418-3.27 0.633-2.92 0.242-2.92 0.242-5.92-1.76-0.914-2.71-0.914-2.71-1.62-5.94-0.698-3.09-1.37-6.06-2.38-9.06z" fill="#F77B0E"/>
<path transform="translate(454,722)" d="m0 0c3.58 3.58 3.92 9.14 4.12 14.1l-0.125 1.94c-6.17-3.15-10.9-7.28-16-12 3.62-3.82 6.74-4.41 12-4z" fill="#EA6D26"/>
<path transform="translate(327,778)" d="m0 0c4.58 1.54 6.62 5.2 9.25 9 0.459 0.642 0.918 1.28 1.39 1.95 3.36 4.78 3.36 4.78 3.36 7.05-1.79-0.114-3.58-0.241-5.38-0.375-1.5-0.104-1.5-0.104-3.02-0.211-2.6-0.414-2.6-0.414-4.6-2.41-0.306-2.57-0.511-5.05-0.625-7.62-0.0387-0.706-0.0773-1.41-0.117-2.14-0.0943-1.74-0.177-3.49-0.258-5.23z" fill="#F7790E"/>
<path transform="translate(1159,846)" d="m0 0 2 1c-1 3-1 3-3.22 4.17-5.87 2.11-10.5 3.3-16.8 2.83l-1-2c12.6-6.97 12.6-6.97 19-6z" fill="#F57711"/>
<path transform="translate(283,691)" d="m0 0c2 1.81 2 1.81 4 4v3h-2l-1 4h-3l-1 3c-1.62-2.19-1.62-2.19-3-5 0.889-4.05 2.97-6.27 6-9z" fill="#F48715"/>
<path transform="translate(394,787)" d="m0 0 1 2c3.03 0.658 3.03 0.658 6 1l1-2c4.88 4.75 4.88 4.75 6 7h-12c-0.99-2.31-1.98-4.62-3-7l1-1z" fill="#EC721E"/>
<path transform="translate(1410,821)" d="m0 0h11c1.23 5.42 1.23 5.42 0.0625 8.38-0.351 0.536-0.701 1.07-1.06 1.62v-3h-2v-2l-1.81 0.625c-2.19 0.375-2.19 0.375-5.19-1.62l-1-4z" fill="#EB7121"/>
<path transform="translate(1136,786)" d="m0 0 2 2 2-1-1 4c-3.12 0.937-5.74 1.06-8.98 0.879-0.935-0.0483-1.87-0.0967-2.83-0.146-0.968-0.0561-1.94-0.112-2.93-0.17-0.984-0.0522-1.97-0.104-2.98-0.158-2.42-0.129-4.85-0.264-7.27-0.404l1-2c0.848-0.0297 0.848-0.0297 1.71-0.0601 2.55-0.0951 5.11-0.205 7.66-0.315 1.33-0.0464 1.33-0.0464 2.7-0.0938 0.851-0.0387 1.7-0.0773 2.58-0.117 1.18-0.0471 1.18-0.0471 2.38-0.0952 2.2-0.159 2.2-0.159 3.97-2.32z" fill="#F7780D"/>
<path transform="translate(1206,848)" d="m0 0 4 4c-3.83 1.8-6.78 2.2-11 2l-1-2h2v-2c1.98-0.66 3.96-1.32 6-2z" fill="#F7780D"/>
<path transform="translate(330,841)" d="m0 0c1.43 8.57 1.43 8.57-1 12l-2-1v-10c2-1 2-1 3-1z" fill="#F48815"/>
<path transform="translate(1412,827)" d="m0 0c3.17 1.58 4.73 2.45 6.31 5.69 0.227 0.763 0.454 1.53 0.688 2.31l-2 2h-2l-0.312-1.81c-0.776-2.47-1.76-3.51-3.69-5.19l1-3z" fill="#EB7121"/>
<path transform="translate(283,697)" d="m0 0 2 1-1 4h-3l-1 3c-1.56-2.38-1.56-2.38-3-5l1-2 5 1v-2z" fill="#F7790D"/>
<path transform="translate(1227,842)" d="m0 0 14 7v2c-3.93-0.565-6.53-1.71-9.81-3.94-0.79-0.525-1.58-1.05-2.39-1.59-0.592-0.486-1.18-0.972-1.79-1.47v-2z" fill="#F7780E"/>
<path transform="translate(1201,831)" d="m0 0c3.34 0.557 6.03 1.35 9 3l-1 2h-5v-2h-3v-3z" fill="#F7780E"/>
</svg>
