<?xml version="1.0" encoding="UTF-8"?>
<svg version="1.1" xmlns="http://www.w3.org/2000/svg" width="406" height="146">
<path d="M0 0 C133.98 0 267.96 0 406 0 C406 48.18 406 96.36 406 146 C272.02 146 138.04 146 0 146 C0 97.82 0 49.64 0 0 Z " fill="#FEFEFE" transform="translate(0,0)"/>
<path d="M0 0 C7.43718408 4.10694285 15.12752642 10.25505284 19 18 C19.1250272 19.5241395 19.19017744 21.05340409 19.22460938 22.58227539 C19.25838684 24.01000023 19.25838684 24.01000023 19.29284668 25.46656799 C19.36397136 29.841482 19.42142549 34.21622513 19.45996094 38.59155273 C19.48651153 40.89319735 19.52737369 43.19472429 19.58300781 45.49584961 C19.66246825 48.82193902 19.69533093 52.14575441 19.71875 55.47265625 C19.75174194 56.49174576 19.78473389 57.51083527 19.81872559 58.56080627 C19.79730522 66.2900018 17.42792494 70.564623 12 76 C0.77963185 85.96579913 -11.91598652 89.75332849 -26.6640625 89.37890625 C-39.86786952 88.56712525 -49.25875453 80.93401427 -58.23828125 72.02734375 C-63.13543625 66.39181505 -63.48976767 62.01388147 -63.5390625 54.765625 C-63.55141937 53.77302673 -63.56377625 52.78042847 -63.57650757 51.75775146 C-63.59604812 49.65984983 -63.60730138 47.56185684 -63.61083984 45.46386719 C-63.62489509 42.27381029 -63.69221541 39.08770423 -63.76171875 35.8984375 C-63.77412237 33.85418398 -63.78333928 31.80990814 -63.7890625 29.765625 C-63.81578033 28.82156799 -63.84249817 27.87751099 -63.87002563 26.90484619 C-63.78328624 18.33797102 -59.84312414 13.92850016 -54.0506897 8.00738525 C-39.93922809 -5.75251001 -17.63662359 -8.24506055 0 0 Z " fill="#EA6E2F" transform="translate(91,32)"/>
<path d="M0 0 C0.495 4.455 0.495 4.455 1 9 C-4.77321793 11.3106113 -10.42083536 12.91460428 -16.5 14.1875 C-19.305 14.785625 -22.11 15.38375 -25 16 C-11.14 16.495 -11.14 16.495 3 17 C3.0825 21.186875 3.165 25.37375 3.25 29.6875 C3.28641602 30.99936279 3.32283203 32.31122559 3.36035156 33.6628418 C3.3703418 34.70609619 3.38033203 35.74935059 3.390625 36.82421875 C3.41157227 37.88729248 3.43251953 38.95036621 3.45410156 40.0456543 C2.88919206 43.72090694 1.55493697 45.35271234 -1 48 C-4.02448271 49.51224136 -7.17216136 49.2042586 -10.4921875 49.23828125 C-11.60571091 49.25038887 -11.60571091 49.25038887 -12.74172974 49.26274109 C-14.31363593 49.27657717 -15.88557212 49.28730146 -17.45751953 49.29516602 C-19.8589783 49.31238512 -22.25906218 49.3562728 -24.66015625 49.40039062 C-26.18748988 49.41051729 -27.71483521 49.41903348 -29.2421875 49.42578125 C-29.95897675 49.44328934 -30.67576599 49.46079742 -31.41427612 49.47883606 C-34.873829 49.46381835 -36.66338346 49.26425179 -39.42236328 47.09838867 C-42.05092625 43.60218026 -42.16032287 41.42084155 -42.28125 37.07421875 C-42.31863281 35.88505859 -42.35601562 34.69589844 -42.39453125 33.47070312 C-42.42933594 32.22224609 -42.46414062 30.97378906 -42.5 29.6875 C-42.56906986 27.23296165 -42.64184578 24.77852413 -42.71875 22.32421875 C-42.74904297 21.23197998 -42.77933594 20.13974121 -42.81054688 19.0144043 C-42.98432197 16.24945438 -43.38197236 13.69636451 -44 11 C-42.97132812 10.70738281 -41.94265625 10.41476563 -40.8828125 10.11328125 C-38.58179258 9.45642368 -36.28594063 8.78763689 -33.9921875 8.10546875 C-26.62492202 5.93591062 -19.21926376 4.03369529 -11.75 2.25 C-10.35563721 1.91585083 -10.35563721 1.91585083 -8.93310547 1.57495117 C-2.25610399 0 -2.25610399 0 0 0 Z " fill="#FCF3EF" transform="translate(89,48)"/>
<path d="M0 0 C5.28 0 10.56 0 16 0 C16.41572266 1.82337891 16.41572266 1.82337891 16.83984375 3.68359375 C17.20553898 5.26827307 17.57143475 6.85290612 17.9375 8.4375 C18.11990234 9.23994141 18.30230469 10.04238281 18.49023438 10.86914062 C19.09661008 14.74952729 19.09661008 14.74952729 21 18 C21.27714844 16.78441406 21.55429688 15.56882812 21.83984375 14.31640625 C22.20553898 12.73172693 22.57143475 11.14709388 22.9375 9.5625 C23.11990234 8.76005859 23.30230469 7.95761719 23.49023438 7.13085938 C24.88671875 1.11328125 24.88671875 1.11328125 26 0 C30.95 0 35.9 0 41 0 C41 11.55 41 23.1 41 35 C37.37 35 33.74 35 30 35 C29.67 29.72 29.34 24.44 29 19 C27.72487387 23.89050364 27.72487387 23.89050364 26.45727539 28.78295898 C25.11111111 33.88888889 25.11111111 33.88888889 24 35 C20.99668982 35.14193337 18.00782866 35.04236378 15 35 C13.68 30.38 12.36 25.76 11 21 C10.67 25.62 10.34 30.24 10 35 C6.7 35 3.4 35 0 35 C0 23.45 0 11.9 0 0 Z " fill="#FF7908" transform="translate(114,55)"/>
<path d="M0 0 C4.186875 -0.061875 8.37375 -0.12375 12.6875 -0.1875 C13.99936279 -0.21481201 15.31122559 -0.24212402 16.6628418 -0.27026367 C17.70609619 -0.27775635 18.74935059 -0.28524902 19.82421875 -0.29296875 C20.88729248 -0.3086792 21.95036621 -0.32438965 23.0456543 -0.34057617 C26.42477331 0.04896775 28.27990964 0.99204546 31 3 C32.58873246 6.17746491 32.41026221 9.54012202 32 13 C30.5 15.5 30.5 15.5 29 17 C29.66 17.474375 30.32 17.94875 31 18.4375 C33.55872662 21.71586848 33.57502611 23.81052325 33.39453125 27.875 C33 30 33 30 31.1875 32.5 C27.44559996 35.06587432 24.43922666 35.11921574 20.01953125 35.09765625 C18.97128174 35.09515869 17.92303223 35.09266113 16.84301758 35.09008789 C15.51294678 35.08098389 14.18287598 35.07187988 12.8125 35.0625 C8.584375 35.041875 4.35625 35.02125 0 35 C0 23.45 0 11.9 0 0 Z " fill="#E0711F" transform="translate(244,55)"/>
<path d="M0 0 C13.53 0 27.06 0 41 0 C41 5.28 41 10.56 41 16 C36.5400636 20.4599364 36.5400636 20.4599364 31.61804199 20.55578613 C30.92940063 20.54768921 30.24075928 20.53959229 29.53125 20.53125 C28.813927 20.5350769 28.096604 20.53890381 27.35754395 20.54284668 C25.84463086 20.54556227 24.33167055 20.53822555 22.81884766 20.52148438 C20.50707024 20.50006551 18.19839987 20.52129351 15.88671875 20.546875 C14.41405566 20.54423166 12.9413945 20.53910653 11.46875 20.53125 C10.78010864 20.53934692 10.09146729 20.54744385 9.38195801 20.55578613 C4.28268209 20.45648461 3.93491295 19.93491295 0 16 C0 10.72 0 5.44 0 0 Z " fill="#EE7E25" transform="translate(49,75)"/>
<path d="M0 0 C3.28976355 1.14964855 5.22935603 2.77936463 7.1171875 5.76953125 C8.91067435 10.30086308 8.51690413 15.22354415 8 20 C6.06956601 23.78365062 4.44519257 24.75171953 0.75 26.8125 C-4.69103852 28.53549553 -8.75490316 28.82032385 -14.25 26.8125 C-18.23561154 24.18561967 -20.48980531 21.53058408 -22 17 C-22.50171564 10.87906919 -22.08833623 7.8832905 -18 3 C-13.04906765 -1.74746937 -6.40922912 -0.67661235 0 0 Z " fill="#FF7909" transform="translate(182,63)"/>
<path d="M0 0 C1.27746094 -0.01933594 2.55492187 -0.03867187 3.87109375 -0.05859375 C8.27349195 0.5330513 10.35699428 1.34838178 13.5625 4.4375 C14.18453223 7.44499566 14.44810211 9.68710366 14.4375 12.6875 C14.458125 13.43257812 14.47875 14.17765625 14.5 14.9453125 C14.54692939 16.77555864 14.55824223 18.60665725 14.5625 20.4375 C15.5525 20.7675 16.5425 21.0975 17.5625 21.4375 C17.5625 23.4175 17.5625 25.3975 17.5625 27.4375 C15.81258666 27.46465383 14.06255055 27.48396551 12.3125 27.5 C10.85070312 27.51740234 10.85070312 27.51740234 9.359375 27.53515625 C6.5625 27.4375 6.5625 27.4375 4.328125 26.87109375 C2.47159977 26.21310823 2.47159977 26.21310823 0.5625 27.4375 C-1.41181598 27.61078529 -3.39361939 27.7043682 -5.375 27.75 C-6.96634766 27.80607422 -6.96634766 27.80607422 -8.58984375 27.86328125 C-11.4375 27.4375 -11.4375 27.4375 -13.28125 25.6328125 C-15.03236961 22.30805162 -15.02085674 20.13209266 -14.4375 16.4375 C-12.30651664 13.57589378 -11.62107733 12.692836 -8.4375 11.4375 C-4.07050757 11.03343664 0.19090976 11.14562825 4.5625 11.4375 C3.9025 10.1175 3.2425 8.7975 2.5625 7.4375 C0.9125 7.4375 -0.7375 7.4375 -2.4375 7.4375 C-2.7675 8.0975 -3.0975 8.7575 -3.4375 9.4375 C-6.7375 9.4375 -10.0375 9.4375 -13.4375 9.4375 C-13.25 6.625 -13.25 6.625 -12.4375 3.4375 C-8.4313079 0.22654453 -5.03872459 0.00507424 0 0 Z " fill="#E07322" transform="translate(295.4375,62.5625)"/>
<path d="M0 0 C1.83498047 -0.03867187 1.83498047 -0.03867187 3.70703125 -0.078125 C7.42810915 0.27268369 9.2281045 1.02778244 12.1875 3.25 C15.70839845 7.62077049 15.1875 9.05676992 15.1875 15.25 C8.5875 15.25 1.9875 15.25 -4.8125 15.25 C-4.1525 16.9 -3.4925 18.55 -2.8125 20.25 C-0.5025 20.25 1.8075 20.25 4.1875 20.25 C4.5175 19.26 4.8475 18.27 5.1875 17.25 C8.4875 17.25 11.7875 17.25 15.1875 17.25 C15.0625 20 15.0625 20 14.1875 23.25 C9.6877898 27.04173765 6.44296057 27.77556197 0.625 27.6875 C-1.29505859 27.68556641 -1.29505859 27.68556641 -3.25390625 27.68359375 C-7.88610432 27.11918762 -10.51485602 25.68188302 -13.625 22.25 C-15.47473404 17.5769877 -15.70929586 13.19296932 -14.8125 8.25 C-11.05578139 1.67861455 -7.3957123 0.09293042 0 0 Z " fill="#E07221" transform="translate(360.8125,62.75)"/>
<path d="M0 0 C1.2890625 -0.0103125 2.578125 -0.020625 3.90625 -0.03125 C8.00103032 0.57406535 9.71895329 1.46224128 12.5 4.5 C12.5 5.82 12.5 7.14 12.5 8.5 C6.72192976 8.7358396 1.98675196 8.36783046 -3.5 6.5 C-1.08374048 9.41535574 0.73748869 9.96586303 4.4375 10.5 C8.25895335 11.05333261 10.69984211 11.75087005 13.5 14.5 C14.3719346 21.36648501 14.3719346 21.36648501 11.625 24.9375 C6.10226843 28.99833204 -0.93545186 28.12918992 -7.5 27.5 C-10.61274106 26.1921256 -11.42017041 25.27310611 -13.5 22.5 C-13.5 21.18 -13.5 19.86 -13.5 18.5 C-10.53 18.5 -7.56 18.5 -4.5 18.5 C-4.17 19.16 -3.84 19.82 -3.5 20.5 C-1.19 20.5 1.12 20.5 3.5 20.5 C-0.20301878 18.03132081 -3.71773497 17.32860128 -8.00390625 16.28125 C-10.5 15.5 -10.5 15.5 -12.5 13.5 C-12.87109375 11.4765625 -12.87109375 11.4765625 -12.9375 9.125 C-12.97746094 8.35414062 -13.01742188 7.58328125 -13.05859375 6.7890625 C-12.5 4.5 -12.5 4.5 -10.44140625 2.2421875 C-6.74098163 0.05043534 -4.2809766 -0.03424781 0 0 Z " fill="#E07423" transform="translate(328.5,62.5)"/>
<path d="M0 0 C3.63 0 7.26 0 11 0 C11.6700834 2.12392506 12.33596797 4.24917524 13 6.375 C13.37125 7.55835937 13.7425 8.74171875 14.125 9.9609375 C15 13 15 13 15 15 C15.66 15 16.32 15 17 15 C17.12117188 14.33613281 17.24234375 13.67226562 17.3671875 12.98828125 C18.22547708 8.46575541 19.03971311 4.20061476 21 0 C24.3 0 27.6 0 31 0 C28.95955296 6.27202029 26.73121626 12.42734289 24.3125 18.5625 C23.99216797 19.38041016 23.67183594 20.19832031 23.34179688 21.04101562 C22.56321746 23.02813622 21.78190155 25.01418427 21 27 C17.37 27 13.74 27 10 27 C8.32776718 22.87723451 6.66315937 18.75143325 5 14.625 C4.28457031 12.8615625 4.28457031 12.8615625 3.5546875 11.0625 C3.10351562 9.94101563 2.65234375 8.81953125 2.1875 7.6640625 C1.76855469 6.62717285 1.34960938 5.5902832 0.91796875 4.52197266 C0 2 0 2 0 0 Z " fill="#FF7A0A" transform="translate(192,63)"/>
<path d="M0 0 C0.89267578 0.00322266 1.78535156 0.00644531 2.70507812 0.00976562 C4.09823242 0.02233398 4.09823242 0.02233398 5.51953125 0.03515625 C6.45990234 0.03966797 7.40027344 0.04417969 8.36914062 0.04882812 C10.69016837 0.06060999 13.01106769 0.07706067 15.33203125 0.09765625 C15.41296255 2.70244508 15.47248559 5.30472278 15.51953125 7.91015625 C15.54466797 8.64814453 15.56980469 9.38613281 15.59570312 10.14648438 C15.6354365 13.07350944 15.66408049 15.46922232 14.27734375 18.09375 C11.20433295 19.67962104 8.44466821 19.41541366 5.01953125 19.34765625 C3.07626953 19.32445312 3.07626953 19.32445312 1.09375 19.30078125 C-2.2422023 19.12064675 -5.39116453 18.72761551 -8.66796875 18.09765625 C-7.16961647 13.43611583 -3.78333284 12.23154874 0.33203125 10.09765625 C-0.24546875 9.783125 -0.82296875 9.46859375 -1.41796875 9.14453125 C-2.16046875 8.7165625 -2.90296875 8.28859375 -3.66796875 7.84765625 C-4.41046875 7.43 -5.15296875 7.01234375 -5.91796875 6.58203125 C-6.49546875 6.0921875 -7.07296875 5.60234375 -7.66796875 5.09765625 C-7.66796875 3.77765625 -7.66796875 2.45765625 -7.66796875 1.09765625 C-4.78531726 0.13677242 -2.99134604 -0.01905316 0 0 Z " fill="#E86936" transform="translate(74.66796875,74.90234375)"/>
<path d="M0 0 C0.70461365 0.02644089 1.40922729 0.05288177 2.13519287 0.0801239 C4.37747368 0.16763672 6.61808859 0.27686591 8.859375 0.38671875 C10.38275351 0.45000402 11.90619172 0.5118692 13.4296875 0.57226562 C17.1570829 0.72313343 20.88329474 0.8934855 24.609375 1.07421875 C23.949375 1.73421875 23.289375 2.39421875 22.609375 3.07421875 C22.609375 5.71421875 22.609375 8.35421875 22.609375 11.07421875 C9.079375 11.07421875 -4.450625 11.07421875 -18.390625 11.07421875 C-18.390625 10.74421875 -18.390625 10.41421875 -18.390625 10.07421875 C-15.090625 9.74421875 -11.790625 9.41421875 -8.390625 9.07421875 C-9.380625 7.75421875 -10.370625 6.43421875 -11.390625 5.07421875 C-11.390625 3.07421875 -11.390625 3.07421875 -9.85253906 1.45385742 C-6.5413061 -0.40173336 -3.67447536 -0.20207054 0 0 Z " fill="#F8D8CD" transform="translate(67.390625,63.92578125)"/>
<path d="M0 0 C0.495 4.455 0.495 4.455 1 9 C-4.80822566 11.31661414 -10.51520248 12.99840863 -16.625 14.3125 C-17.85476562 14.60350586 -17.85476562 14.60350586 -19.109375 14.90039062 C-24.03984886 15.96654615 -27.2798343 16.2325108 -32 14 C-32.99 13.34 -33.98 12.68 -35 12 C-35 10 -35 10 -33 8 C-30.60290461 7.29653674 -28.24318157 6.68465517 -25.8125 6.125 C-24.36820206 5.77984678 -22.92419834 5.4334604 -21.48046875 5.0859375 C-20.74103027 4.90901367 -20.0015918 4.73208984 -19.23974609 4.54980469 C-14.44011704 3.37160929 -9.68055192 2.03888789 -4.9140625 0.734375 C-2 0 -2 0 0 0 Z " fill="#FBEEE9" transform="translate(89,48)"/>
<path d="M0 0 C3.63 0 7.26 0 11 0 C11 8.91 11 17.82 11 27 C7.37 27 3.74 27 0 27 C0 18.09 0 9.18 0 0 Z " fill="#FF8118" transform="translate(226,63)"/>
<path d="M0 0 C0.70461365 0.02644089 1.40922729 0.05288177 2.13519287 0.0801239 C4.37747368 0.16763672 6.61808859 0.27686591 8.859375 0.38671875 C10.38275351 0.45000402 11.90619172 0.5118692 13.4296875 0.57226562 C17.1570829 0.72313343 20.88329474 0.8934855 24.609375 1.07421875 C24.609375 1.40421875 24.609375 1.73421875 24.609375 2.07421875 C17.349375 2.40421875 10.089375 2.73421875 2.609375 3.07421875 C3.599375 4.39421875 4.589375 5.71421875 5.609375 7.07421875 C5.609375 7.73421875 5.609375 8.39421875 5.609375 9.07421875 C-5.59445038 10.6840888 -5.59445038 10.6840888 -9.390625 8.07421875 C-10.703125 5.44921875 -10.703125 5.44921875 -11.390625 3.07421875 C-7.85461093 -0.36357271 -4.66286936 -0.25642533 0 0 Z " fill="#F7D0C0" transform="translate(67.390625,63.92578125)"/>
<path d="M0 0 C3 0.25 3 0.25 5 2.25 C5.265625 4.5625 5.265625 4.5625 5.25 7.25 C5.25515625 8.136875 5.2603125 9.02375 5.265625 9.9375 C5 12.25 5 12.25 3 14.25 C0.19620529 14.60946086 -1.34209304 14.74499666 -3.640625 13.015625 C-5.37060127 10.76864433 -5.37263038 9.49512643 -5.3125 6.6875 C-5.30863281 5.90246094 -5.30476562 5.11742188 -5.30078125 4.30859375 C-4.78025472 0.74602907 -3.44175376 0.28681281 0 0 Z " fill="#FFF6EF" transform="translate(175,69.75)"/>
<path d="M0 0 C0.33 2.97 0.66 5.94 1 9 C-2.82320557 10.42258812 -5.91281305 11.24042276 -10 11 C-9.67 10.01 -9.34 9.02 -9 8 C-10.87197454 5.30566683 -10.87197454 5.30566683 -13 3 C-11.2092015 2.49689942 -9.41733089 1.99761372 -7.625 1.5 C-6.62726563 1.2215625 -5.62953125 0.943125 -4.6015625 0.65625 C-2 0 -2 0 0 0 Z " fill="#FCF5F3" transform="translate(89,48)"/>
<path d="M0 0 C1.9375 0.0625 1.9375 0.0625 4 1 C5.25 4.0625 5.25 4.0625 6 7 C5.34 7.66 4.68 8.32 4 9 C4.7425 9.928125 4.7425 9.928125 5.5 10.875 C7 13 7 13 7 15 C5.68 15 4.36 15 3 15 C2.67 20.94 2.34 26.88 2 33 C1.67 33 1.34 33 1 33 C0.97494385 32.20827393 0.9498877 31.41654785 0.92407227 30.60083008 C0.80784271 27.00456637 0.68523824 23.4085472 0.5625 19.8125 C0.52318359 18.56662109 0.48386719 17.32074219 0.44335938 16.03710938 C0.40146484 14.83505859 0.35957031 13.63300781 0.31640625 12.39453125 C0.27974854 11.28956299 0.24309082 10.18459473 0.20532227 9.04614258 C0.06983521 6.01683062 0.06983521 6.01683062 -0.58227539 3.1628418 C-0.78904907 2.09223511 -0.78904907 2.09223511 -1 1 C-0.67 0.67 -0.34 0.34 0 0 Z " fill="#F9DABE" transform="translate(46,58)"/>
<path d="M0 0 C2.5625 2.375 2.5625 2.375 5 5 C5.66 5.66 6.32 6.32 7 7 C1.85569168 8.851951 -0.9785691 9.28246859 -6 7 C-6.99 6.34 -7.98 5.68 -9 5 C-9 3 -9 3 -7 1 C-4.49940039 0.19335496 -2.66053211 0 0 0 Z " fill="#FDF6F2" transform="translate(63,55)"/>
<path d="M0 0 C3.63 0 7.26 0 11 0 C11 2.31 11 4.62 11 7 C7.37 7 3.74 7 0 7 C0 4.69 0 2.38 0 0 Z " fill="#FF8420" transform="translate(226,53)"/>
<path d="M0 0 C4.50802601 1.25805377 7.4912812 2.90407165 11 6 C9.54550599 7.0055761 8.08627557 8.00430435 6.625 9 C5.40683594 9.8353125 5.40683594 9.8353125 4.1640625 10.6875 C2 12 2 12 0 12 C0 8.04 0 4.08 0 0 Z " fill="#FCF0E8" transform="translate(65,79)"/>
<path d="M0 0 C6.6 0 13.2 0 20 0 C20 0.33 20 0.66 20 1 C16.7 1 13.4 1 10 1 C9.67 2.65 9.34 4.3 9 6 C5.625 6.1875 5.625 6.1875 2 6 C0 3 0 3 0 0 Z " fill="#F9E8DC" transform="translate(356,78)"/>
<path d="M0 0 C3.3 0 6.6 0 10 0 C10.38218767 1.65614657 10.71395102 3.32457024 11 5 C10 6 10 6 7.71484375 6.09765625 C6.34005859 6.08025391 6.34005859 6.08025391 4.9375 6.0625 C4.01839844 6.05347656 3.09929687 6.04445313 2.15234375 6.03515625 C1.44207031 6.02355469 0.73179687 6.01195313 0 6 C0 4.02 0 2.04 0 0 Z " fill="#FDF7F4" transform="translate(255,76)"/>
<path d="M0 0 C10.55808656 -0.18451025 10.55808656 -0.18451025 15 1 C14.01 1.66 13.02 2.32 12 3 C12.66 4.65 13.32 6.3 14 8 C10.7 8 7.4 8 4 8 C5.32 7.67 6.64 7.34 8 7 C7.2575 6.071875 7.2575 6.071875 6.5 5.125 C5 3 5 3 5 1 C3.35 1 1.7 1 0 1 C0 0.67 0 0.34 0 0 Z " fill="#FDF5F2" transform="translate(65,66)"/>
<path d="M0 0 C2.97 0 5.94 0 9 0 C9.38218767 1.65614657 9.71395102 3.32457024 10 5 C9 6 9 6 6.93359375 6.09765625 C6.10988281 6.08605469 5.28617187 6.07445313 4.4375 6.0625 C3.61121094 6.05347656 2.78492188 6.04445313 1.93359375 6.03515625 C1.29550781 6.02355469 0.65742188 6.01195313 0 6 C0 4.02 0 2.04 0 0 Z " fill="#FCF6F1" transform="translate(255,63)"/>
<path d="M0 0 C2 2 2 2 2 5 C-1.3 5 -4.6 5 -8 5 C-7.67 3.68 -7.34 2.36 -7 1 C-4.48718205 -0.25640898 -2.78302919 -0.20872719 0 0 Z " fill="#F9E4D5" transform="translate(364,69)"/>
<path d="M0 0 C0.33 2.31 0.66 4.62 1 7 C-3 7 -3 7 -6 5 C-6.6875 2.875 -6.6875 2.875 -7 1 C-2.25 0 -2.25 0 0 0 Z " fill="#F3B9B2" transform="translate(89,48)"/>
<path d="M0 0 C0.33 1.32 0.66 2.64 1 4 C-1.26955186 4.22185844 -3.54073755 4.42705515 -5.8125 4.625 C-7.70935547 4.79902344 -7.70935547 4.79902344 -9.64453125 4.9765625 C-13 5 -13 5 -16 3 C-16 2.34 -16 1.68 -16 1 C-14.00045254 0.95745644 -11.99958364 0.95919217 -10 1 C-9.67 1.33 -9.34 1.66 -9 2 C-7.48530552 2.23192865 -5.96245438 2.41215238 -4.4375 2.5625 C-3.61121094 2.64628906 -2.78492188 2.73007813 -1.93359375 2.81640625 C-1.29550781 2.87699219 -0.65742188 2.93757813 0 3 C0 2.01 0 1.02 0 0 Z " fill="#F8E3D3" transform="translate(341,68)"/>
<path d="M0 0 C-0.33 1.65 -0.66 3.3 -1 5 C-2.98 5 -4.96 5 -7 5 C-7.33 3.68 -7.66 2.36 -8 1 C-5.29120665 -0.35439668 -2.99066732 -0.06501451 0 0 Z " fill="#FDF7F2" transform="translate(299,79)"/>
<path d="M0 0 C2.375 -0.125 2.375 -0.125 5 0 C7 2 7 2 7 5 C4.36 5 1.72 5 -1 5 C-0.67 3.35 -0.34 1.7 0 0 Z " fill="#F9E6D7" transform="translate(293,69)"/>
<path d="M0 0 C1.9375 0.0625 1.9375 0.0625 4 1 C5.25 4.0625 5.25 4.0625 6 7 C3.03 6.505 3.03 6.505 0 6 C-0.38218767 4.34385343 -0.71395102 2.67542976 -1 1 C-0.67 0.67 -0.34 0.34 0 0 Z " fill="#F6BF92" transform="translate(46,58)"/>
<path d="M0 0 C0.33 0 0.66 0 1 0 C1.03738281 1.10859375 1.07476562 2.2171875 1.11328125 3.359375 C1.17895448 4.82294974 1.24540135 6.28648991 1.3125 7.75 C1.33505859 8.47960937 1.35761719 9.20921875 1.38085938 9.9609375 C1.59309781 14.20570619 1.97070799 16.913858 5 20 C4.34 20.33 3.68 20.66 3 21 C1.07463062 19.39441516 0.08925833 18.52230522 -0.34057617 16.00708008 C-0.32486572 15.26868896 -0.30915527 14.53029785 -0.29296875 13.76953125 C-0.28330078 12.96708984 -0.27363281 12.16464844 -0.26367188 11.33789062 C-0.23853516 10.50451172 -0.21339844 9.67113281 -0.1875 8.8125 C-0.17396484 7.96751953 -0.16042969 7.12253906 -0.14648438 6.25195312 C-0.11115799 4.16769616 -0.05735139 2.08376723 0 0 Z " fill="#FCF3E9" transform="translate(48,75)"/>
<path d="M0 0 C2.31 0.33 4.62 0.66 7 1 C7 1.99 7 2.98 7 4 C4.69 4 2.38 4 0 4 C0 2.68 0 1.36 0 0 Z " fill="#FCF3ED" transform="translate(325,80)"/>
<path d="M0 0 C-3.31371 2.20914 -4.3446021 2.22481553 -8.1875 2.125 C-9.08855469 2.10695313 -9.98960938 2.08890625 -10.91796875 2.0703125 C-11.60503906 2.04710938 -12.29210938 2.02390625 -13 2 C-9.02291084 -1.97708916 -5.28744325 -0.91513441 0 0 Z " fill="#EA733D" transform="translate(75,63)"/>
<path d="M0 0 C2.3125 -0.25 2.3125 -0.25 5 0 C6.8125 2 6.8125 2 8 4 C6.25 4.6875 6.25 4.6875 4 5 C1.75 3.6875 1.75 3.6875 0 2 C0 1.34 0 0.68 0 0 Z " fill="#EE8949" transform="translate(54,58)"/>
<path d="M0 0 C1.65 0 3.3 0 5 0 C5.66 1.65 6.32 3.3 7 5 C4.625 4.75 4.625 4.75 2 4 C0.6875 1.9375 0.6875 1.9375 0 0 Z " fill="#E9724C" transform="translate(76,68)"/>
<path d="M0 0 C2.375 0.25 2.375 0.25 5 1 C6.3125 3.0625 6.3125 3.0625 7 5 C4.625 4.75 4.625 4.75 2 4 C0.6875 1.9375 0.6875 1.9375 0 0 Z " fill="#EB7841" transform="translate(66,68)"/>
<path d="M0 0 C2.375 0.25 2.375 0.25 5 1 C6.3125 3.0625 6.3125 3.0625 7 5 C4.625 4.75 4.625 4.75 2 4 C0.6875 1.9375 0.6875 1.9375 0 0 Z " fill="#ED8138" transform="translate(56,68)"/>
<path d="M0 0 C2.3125 -0.25 2.3125 -0.25 5 0 C6.8125 2 6.8125 2 8 4 C4.28400809 4.20086443 3.22791555 4.1519437 0 2 C0 1.34 0 0.68 0 0 Z " fill="#EA7542" transform="translate(64,56)"/>
<path d="M0 0 C1.9375 0.25 1.9375 0.25 4 1 C4.66 1.99 5.32 2.98 6 4 C4.68 4.33 3.36 4.66 2 5 C1.01 3.68 0.02 2.36 -1 1 C-0.67 0.67 -0.34 0.34 0 0 Z " fill="#E86C4A" transform="translate(75,53)"/>
</svg>
